<svg xmlns="http://www.w3.org/2000/svg" xmlns:xlink="http://www.w3.org/1999/xlink" width="500" zoomAndPan="magnify" viewBox="0 0 375 374.999991" height="500" preserveAspectRatio="xMidYMid meet" version="1.0"><defs><filter x="0%" y="0%" width="100%" height="100%" id="38c35ff367"><feColorMatrix values="0 0 0 0 1 0 0 0 0 1 0 0 0 0 1 0 0 0 1 0" color-interpolation-filters="sRGB"/></filter><mask id="5206e9edc2"><g filter="url(#38c35ff367)"><rect x="-37.5" width="450" fill="#000000" y="-37.499999" height="449.999989" fill-opacity="0.2"/></g></mask><clipPath id="e414ca49ff"><rect x="0" width="209" y="0" height="209"/></clipPath><clipPath id="f9d003ab6a"><path d="M 29.5625 29.5625 L 345.4375 29.5625 L 345.4375 345.4375 L 29.5625 345.4375 Z M 29.5625 29.5625 " clip-rule="nonzero"/></clipPath><mask id="a8f08d16fe"><g filter="url(#38c35ff367)"><rect x="-37.5" width="450" fill="#000000" y="-37.499999" height="449.999989" fill-opacity="0.2"/></g></mask><clipPath id="aa8f6c5b18"><path d="M 0.5625 0.5625 L 316.4375 0.5625 L 316.4375 316.4375 L 0.5625 316.4375 Z M 0.5625 0.5625 " clip-rule="nonzero"/></clipPath><clipPath id="3e9bfd7c40"><rect x="0" width="317" y="0" height="317"/></clipPath><mask id="388d25b400"><g filter="url(#38c35ff367)"><rect x="-37.5" width="450" fill="#000000" y="-37.499999" height="449.999989" fill-opacity="0.2"/></g></mask><clipPath id="fac8a61cfa"><path d="M 0.238281 1 L 146.878906 1 L 146.878906 146 L 0.238281 146 Z M 0.238281 1 " clip-rule="nonzero"/></clipPath><clipPath id="bcc67ca6c2"><rect x="0" width="147" y="0" height="147"/></clipPath><clipPath id="e186911885"><path d="M 172 188 L 203 188 L 203 223.285156 L 172 223.285156 Z M 172 188 " clip-rule="nonzero"/></clipPath><clipPath id="f8ade5d33e"><path d="M 163.671875 166.425781 L 211.054688 166.425781 L 211.054688 216 L 163.671875 216 Z M 163.671875 166.425781 " clip-rule="nonzero"/></clipPath><clipPath id="521ceb2665"><path d="M 172 230 L 203 230 L 203 264.339844 L 172 264.339844 Z M 172 230 " clip-rule="nonzero"/></clipPath><clipPath id="b5922bc160"><path d="M 163.671875 207.484375 L 211.054688 207.484375 L 211.054688 257 L 163.671875 257 Z M 163.671875 207.484375 " clip-rule="nonzero"/></clipPath><clipPath id="fa8fd521ce"><path d="M 172 269 L 203 269 L 203 303.875 L 172 303.875 Z M 172 269 " clip-rule="nonzero"/></clipPath><clipPath id="07af2ffa7a"><path d="M 163.671875 247.015625 L 211.054688 247.015625 L 211.054688 296 L 163.671875 296 Z M 163.671875 247.015625 " clip-rule="nonzero"/></clipPath><clipPath id="16dc5f1cc8"><path d="M 170 162 L 205 162 L 205 181.972656 L 170 181.972656 Z M 170 162 " clip-rule="nonzero"/></clipPath><clipPath id="8f51e6879c"><path d="M 162.316406 146 L 212.855469 146 L 212.855469 179 L 162.316406 179 Z M 162.316406 146 " clip-rule="nonzero"/></clipPath><clipPath id="cd2f0803e8"><path d="M 169 139.644531 L 206 139.644531 L 206 166 L 169 166 Z M 169 139.644531 " clip-rule="nonzero"/></clipPath><clipPath id="8be09218d9"><path d="M 206 100 L 258 100 L 258 145 L 206 145 Z M 206 100 " clip-rule="nonzero"/></clipPath><clipPath id="d2825f31de"><path d="M 244.726562 85.890625 L 270.21875 115.628906 L 218.894531 159.621094 L 193.402344 129.886719 Z M 244.726562 85.890625 " clip-rule="nonzero"/></clipPath><clipPath id="6e91beffb5"><path d="M 244.726562 85.890625 L 270.21875 115.628906 L 218.894531 159.621094 L 193.402344 129.886719 Z M 244.726562 85.890625 " clip-rule="nonzero"/></clipPath><clipPath id="4deec9e356"><path d="M 224 60 L 275 60 L 275 105 L 224 105 Z M 224 60 " clip-rule="nonzero"/></clipPath><clipPath id="98dc643f49"><path d="M 261.8125 45.457031 L 287.679688 74.871094 L 236.917969 119.511719 L 211.054688 90.097656 Z M 261.8125 45.457031 " clip-rule="nonzero"/></clipPath><clipPath id="0644541f9a"><path d="M 261.8125 45.457031 L 287.679688 74.871094 L 236.917969 119.511719 L 211.054688 90.097656 Z M 261.8125 45.457031 " clip-rule="nonzero"/></clipPath><clipPath id="d22a482e86"><path d="M 267 50 L 319 50 L 319 96 L 267 96 Z M 267 50 " clip-rule="nonzero"/></clipPath><clipPath id="ff811ece66"><path d="M 305.40625 35.746094 L 331.269531 65.160156 L 280.511719 109.800781 L 254.644531 80.386719 Z M 305.40625 35.746094 " clip-rule="nonzero"/></clipPath><clipPath id="821ba7105f"><path d="M 305.40625 35.746094 L 331.269531 65.160156 L 280.511719 109.800781 L 254.644531 80.386719 Z M 305.40625 35.746094 " clip-rule="nonzero"/></clipPath><clipPath id="5eb8ac292c"><path d="M 118 100 L 169 100 L 169 147 L 118 147 Z M 118 100 " clip-rule="nonzero"/></clipPath><clipPath id="297761fc69"><path d="M 181.839844 132.320312 L 155.246094 161.078125 L 105.613281 115.183594 L 132.207031 86.425781 Z M 181.839844 132.320312 " clip-rule="nonzero"/></clipPath><clipPath id="9d69f48e43"><path d="M 181.839844 132.320312 L 155.246094 161.078125 L 105.613281 115.183594 L 132.207031 86.425781 Z M 181.839844 132.320312 " clip-rule="nonzero"/></clipPath><clipPath id="516ceaa26b"><path d="M 100 59 L 151 59 L 151 106 L 100 106 Z M 100 59 " clip-rule="nonzero"/></clipPath><clipPath id="972338fc4e"><path d="M 163.507812 91.59375 L 136.730469 120.179688 L 87.394531 73.964844 L 114.171875 45.378906 Z M 163.507812 91.59375 " clip-rule="nonzero"/></clipPath><clipPath id="22c3243ff1"><path d="M 163.507812 91.59375 L 136.730469 120.179688 L 87.394531 73.964844 L 114.171875 45.378906 Z M 163.507812 91.59375 " clip-rule="nonzero"/></clipPath><clipPath id="f03fa493bf"><path d="M 58 49 L 108 49 L 108 96 L 58 96 Z M 58 49 " clip-rule="nonzero"/></clipPath><clipPath id="087e091b10"><path d="M 121.027344 81.207031 L 94.25 109.792969 L 44.917969 63.578125 L 71.695312 34.992188 Z M 121.027344 81.207031 " clip-rule="nonzero"/></clipPath><clipPath id="af74673976"><path d="M 121.027344 81.207031 L 94.25 109.792969 L 44.917969 63.578125 L 71.695312 34.992188 Z M 121.027344 81.207031 " clip-rule="nonzero"/></clipPath></defs><g mask="url(#5206e9edc2)"><g transform="matrix(1, 0, 0, 1, 83, 83)"><g clip-path="url(#e414ca49ff)"><path fill="#004aad" d="M 46.136719 189.65625 L 83.074219 135.363281 C 82.589844 135.023438 82.117188 134.6875 81.652344 134.320312 C 81.179688 133.960938 80.722656 133.589844 80.285156 133.214844 L 37.40625 182.941406 C 38.808594 184.140625 40.226562 185.300781 41.679688 186.40625 C 43.128906 187.53125 44.617188 188.613281 46.136719 189.65625 M 88.519531 138.515625 L 59.957031 197.664062 C 61.609375 198.449219 63.277344 199.199219 64.964844 199.898438 C 66.671875 200.601562 68.394531 201.261719 70.136719 201.878906 L 91.757812 139.863281 C 91.207031 139.667969 90.652344 139.453125 90.109375 139.230469 C 89.589844 139 89.054688 138.765625 88.519531 138.515625 Z M 97.859375 141.488281 L 85.582031 206.003906 C 87.382812 206.335938 89.195312 206.628906 91.019531 206.859375 C 92.820312 207.09375 94.652344 207.289062 96.507812 207.433594 L 101.347656 141.945312 C 100.769531 141.898438 100.179688 141.828125 99.597656 141.757812 C 99.007812 141.675781 98.429688 141.585938 97.859375 141.488281 Z M 107.652344 141.945312 L 112.492188 207.433594 C 114.339844 207.289062 116.160156 207.101562 117.964844 206.871094 C 119.792969 206.628906 121.617188 206.34375 123.417969 206.003906 L 111.140625 141.488281 C 110.570312 141.585938 109.980469 141.6875 109.394531 141.757812 C 108.8125 141.835938 108.230469 141.898438 107.652344 141.945312 Z M 117.222656 139.863281 L 138.847656 201.878906 C 140.585938 201.261719 142.3125 200.601562 144.015625 199.898438 C 145.710938 199.191406 147.382812 198.449219 149.035156 197.65625 L 120.472656 138.507812 C 119.945312 138.757812 119.410156 138.988281 118.867188 139.222656 C 118.328125 139.445312 117.777344 139.660156 117.222656 139.863281 Z M 125.925781 135.363281 L 162.863281 189.664062 C 164.382812 188.621094 165.871094 187.539062 167.328125 186.425781 C 168.78125 185.308594 170.210938 184.148438 171.605469 182.960938 L 128.722656 133.230469 C 128.277344 133.613281 127.8125 133.980469 127.347656 134.335938 C 126.875 134.6875 126.402344 135.035156 125.925781 135.363281 Z M 133.167969 128.765625 L 182.898438 171.648438 C 184.085938 170.253906 185.246094 168.835938 186.363281 167.371094 C 187.476562 165.917969 188.566406 164.425781 189.613281 162.90625 L 135.320312 125.972656 C 134.988281 126.445312 134.640625 126.917969 134.273438 127.390625 C 133.917969 127.855469 133.550781 128.3125 133.167969 128.765625 Z M 138.472656 120.527344 L 197.621094 149.085938 C 198.414062 147.433594 199.15625 145.757812 199.863281 144.0625 C 200.566406 142.363281 201.226562 140.640625 201.835938 138.898438 L 139.820312 117.277344 C 139.613281 117.839844 139.410156 118.382812 139.1875 118.929688 C 138.953125 119.453125 138.722656 119.992188 138.472656 120.527344 Z M 141.445312 111.1875 L 205.960938 123.464844 C 206.289062 121.660156 206.585938 119.847656 206.816406 118.015625 C 207.046875 116.214844 207.246094 114.382812 207.386719 112.535156 L 141.898438 107.695312 C 141.855469 108.277344 141.785156 108.867188 141.710938 109.445312 C 141.632812 110.035156 141.542969 110.617188 141.445312 111.1875 Z M 141.898438 101.394531 L 207.386719 96.554688 C 207.246094 94.707031 207.058594 92.875 206.816406 91.0625 C 206.574219 89.242188 206.289062 87.421875 205.960938 85.625 L 141.445312 97.902344 C 141.542969 98.472656 141.640625 99.054688 141.710938 99.644531 C 141.785156 100.230469 141.855469 100.8125 141.898438 101.394531 Z M 139.820312 91.820312 L 201.835938 70.199219 C 201.21875 68.457031 200.558594 66.734375 199.851562 65.039062 C 199.148438 63.339844 198.40625 61.664062 197.613281 60.011719 L 138.460938 88.570312 C 138.710938 89.097656 138.945312 89.632812 139.167969 90.179688 C 139.398438 90.714844 139.613281 91.269531 139.820312 91.820312 Z M 135.320312 83.117188 L 189.613281 46.179688 C 188.566406 44.664062 187.488281 43.171875 186.363281 41.707031 C 185.246094 40.253906 184.085938 38.824219 182.898438 37.441406 L 133.167969 80.324219 C 133.542969 80.769531 133.910156 81.222656 134.273438 81.6875 C 134.640625 82.171875 134.988281 82.644531 135.320312 83.117188 Z M 128.722656 75.875 L 171.605469 26.148438 C 170.210938 24.960938 168.78125 23.796875 167.328125 22.683594 C 165.871094 21.566406 164.382812 20.476562 162.863281 19.433594 L 125.925781 73.726562 C 126.410156 74.054688 126.882812 74.402344 127.347656 74.769531 C 127.8125 75.125 128.277344 75.492188 128.722656 75.875 Z M 120.472656 70.574219 L 149.035156 11.425781 C 147.382812 10.628906 145.703125 9.886719 144.007812 9.183594 C 142.3125 8.476562 140.585938 7.816406 138.847656 7.210938 L 117.222656 69.226562 C 117.777344 69.421875 118.328125 69.636719 118.875 69.859375 C 119.410156 70.089844 119.945312 70.324219 120.472656 70.574219 Z M 111.140625 67.601562 L 123.417969 3.085938 C 121.617188 2.753906 119.792969 2.460938 117.964844 2.21875 C 116.160156 1.988281 114.339844 1.789062 112.492188 1.65625 L 107.652344 67.144531 C 108.230469 67.1875 108.8125 67.25 109.394531 67.332031 C 109.980469 67.414062 110.5625 67.5 111.140625 67.601562 Z M 101.347656 67.144531 L 96.507812 1.65625 C 94.660156 1.800781 92.839844 1.988281 91.035156 2.21875 C 89.207031 2.460938 87.382812 2.746094 85.582031 3.085938 L 97.859375 67.601562 C 98.429688 67.5 99.019531 67.402344 99.605469 67.332031 C 100.1875 67.25 100.769531 67.1875 101.347656 67.144531 Z M 91.777344 69.226562 L 70.152344 7.210938 C 68.414062 7.824219 66.6875 8.488281 64.984375 9.191406 C 63.289062 9.898438 61.617188 10.636719 59.964844 11.433594 L 88.527344 70.582031 C 89.054688 70.332031 89.589844 70.101562 90.132812 69.867188 C 90.671875 69.644531 91.222656 69.429688 91.777344 69.226562 Z M 83.074219 73.726562 L 46.136719 19.433594 C 44.617188 20.476562 43.128906 21.558594 41.671875 22.671875 C 40.21875 23.789062 38.789062 24.949219 37.394531 26.148438 L 80.277344 75.875 C 80.722656 75.492188 81.179688 75.125 81.644531 74.769531 C 82.117188 74.414062 82.589844 74.0625 83.074219 73.726562 Z M 75.832031 80.324219 L 26.101562 37.441406 C 24.914062 38.832031 23.753906 40.253906 22.636719 41.707031 C 21.523438 43.164062 20.433594 44.65625 19.386719 46.179688 L 73.679688 83.117188 C 74.019531 82.636719 74.359375 82.160156 74.726562 81.699219 C 75.089844 81.222656 75.457031 80.769531 75.832031 80.324219 Z M 70.527344 88.570312 L 11.378906 60.011719 C 10.59375 61.664062 9.84375 63.332031 9.148438 65.019531 C 8.441406 66.726562 7.78125 68.449219 7.164062 70.199219 L 69.179688 91.820312 C 69.375 91.269531 69.589844 90.714844 69.8125 90.171875 C 70.046875 89.632812 70.277344 89.097656 70.527344 88.570312 Z M 67.554688 97.902344 L 3.039062 85.625 C 2.710938 87.421875 2.414062 89.234375 2.183594 91.0625 C 1.953125 92.875 1.753906 94.707031 1.613281 96.554688 L 67.101562 101.394531 C 67.144531 100.8125 67.214844 100.222656 67.289062 99.644531 C 67.367188 99.054688 67.457031 98.472656 67.554688 97.902344 Z M 67.101562 107.695312 L 1.613281 112.535156 C 1.753906 114.382812 1.941406 116.203125 2.175781 118.007812 C 2.414062 119.839844 2.703125 121.660156 3.039062 123.464844 L 67.554688 111.1875 C 67.457031 110.617188 67.359375 110.027344 67.289062 109.445312 C 67.207031 108.855469 67.144531 108.277344 67.101562 107.695312 Z M 69.179688 117.265625 L 7.164062 138.890625 C 7.78125 140.632812 8.441406 142.355469 9.148438 144.0625 C 9.851562 145.757812 10.59375 147.425781 11.386719 149.078125 L 70.539062 120.515625 C 70.289062 119.992188 70.054688 119.453125 69.824219 118.910156 C 69.601562 118.375 69.386719 117.820312 69.179688 117.265625 Z M 73.679688 125.972656 L 19.386719 162.90625 C 20.433594 164.425781 21.511719 165.917969 22.628906 167.371094 C 23.746094 168.828125 24.90625 170.253906 26.09375 171.648438 L 75.824219 128.765625 C 75.449219 128.320312 75.082031 127.863281 74.714844 127.390625 C 74.367188 126.925781 74.019531 126.453125 73.679688 125.972656 Z M 73.679688 125.972656 " fill-opacity="1" fill-rule="evenodd"/></g></g></g><g clip-path="url(#f9d003ab6a)"><g mask="url(#a8f08d16fe)"><g transform="matrix(1, 0, 0, 1, 29, 29)"><g clip-path="url(#3e9bfd7c40)"><g clip-path="url(#aa8f6c5b18)"><path fill="#004aad" d="M 224.15625 0.632812 L 182.757812 101.269531 C 190.175781 104.421875 196.863281 108.964844 202.480469 114.574219 C 208.097656 120.1875 212.640625 126.867188 215.78125 134.296875 L 316.421875 92.894531 C 307.761719 72.085938 295.101562 53.351562 279.394531 37.65625 C 263.691406 21.953125 244.960938 9.292969 224.15625 0.632812 M 316.414062 224.203125 L 215.773438 182.792969 C 212.621094 190.222656 208.078125 196.898438 202.472656 202.515625 C 196.855469 208.132812 190.175781 212.675781 182.75 215.820312 L 224.148438 316.457031 C 244.960938 307.796875 263.691406 295.136719 279.386719 279.441406 C 295.09375 263.746094 307.75 245.015625 316.414062 224.203125 Z M 92.84375 316.457031 L 134.242188 215.820312 C 126.824219 212.667969 120.136719 208.121094 114.519531 202.515625 C 108.902344 196.898438 104.359375 190.222656 101.21875 182.792969 L 0.585938 224.203125 C 9.25 245.015625 21.910156 263.746094 37.605469 279.441406 C 53.300781 295.136719 72.039062 307.796875 92.84375 316.457031 Z M 134.25 101.269531 L 92.84375 0.632812 C 72.03125 9.292969 53.300781 21.953125 37.605469 37.648438 C 21.910156 53.34375 9.25 72.085938 0.585938 92.886719 L 101.226562 134.285156 C 104.378906 126.867188 108.921875 120.179688 114.527344 114.566406 C 120.144531 108.957031 126.824219 104.414062 134.25 101.269531 Z M 134.25 101.269531 " fill-opacity="1" fill-rule="evenodd"/></g></g></g></g></g><path fill="#004aad" d="M 57.933594 204.917969 C 55.632812 187.667969 56.828125 170.257812 61.265625 153.726562 C 65.691406 137.179688 73.363281 121.503906 83.988281 107.726562 L 85.28125 108.726562 C 74.789062 122.332031 67.21875 137.816406 62.84375 154.152344 C 58.46875 170.492188 57.28125 187.679688 59.558594 204.714844 Z M 204.875 317.109375 C 187.625 319.414062 170.214844 318.21875 153.679688 313.78125 C 137.136719 309.351562 121.457031 301.683594 107.683594 291.058594 L 108.683594 289.761719 C 122.296875 300.253906 137.769531 307.824219 154.109375 312.199219 C 170.445312 316.574219 187.632812 317.761719 204.667969 315.484375 Z M 317.066406 170.171875 C 319.367188 187.417969 318.171875 204.828125 313.734375 221.363281 C 309.296875 237.910156 301.636719 253.585938 291.011719 267.371094 L 289.71875 266.371094 C 300.207031 252.757812 307.78125 237.285156 312.15625 220.945312 C 316.53125 204.605469 317.71875 187.417969 315.441406 170.382812 Z M 170.125 57.980469 C 187.375 55.675781 204.785156 56.871094 221.328125 61.308594 C 237.871094 65.738281 253.550781 73.40625 267.328125 84.03125 L 266.328125 85.328125 C 252.71875 74.835938 237.238281 67.265625 220.898438 62.890625 C 204.5625 58.515625 187.375 57.328125 170.339844 59.605469 Z M 170.125 57.980469 " fill-opacity="1" fill-rule="nonzero"/><g mask="url(#388d25b400)"><g transform="matrix(1, 0, 0, 1, 114, 114)"><g clip-path="url(#bcc67ca6c2)"><g clip-path="url(#fac8a61cfa)"><path fill="#004aad" d="M 99.132812 66.679688 C 100.890625 73.242188 100.140625 80.472656 96.480469 86.820312 C 95.589844 88.367188 94.5625 89.792969 93.425781 91.078125 C 92.320312 92.339844 91.113281 93.472656 89.820312 94.480469 L 118.007812 131.390625 C 121.695312 128.550781 125.148438 125.335938 128.292969 121.746094 C 131.417969 118.195312 134.230469 114.285156 136.695312 110.023438 C 146.765625 92.570312 148.816406 72.695312 143.980469 54.652344 C 139.148438 36.617188 127.433594 20.421875 109.980469 10.34375 C 105.722656 7.886719 101.328125 5.90625 96.847656 4.386719 C 92.328125 2.859375 87.730469 1.796875 83.117188 1.183594 L 77.160156 47.242188 C 78.785156 47.464844 80.402344 47.847656 81.980469 48.386719 C 83.617188 48.9375 85.214844 49.652344 86.757812 50.546875 C 93.113281 54.222656 97.375 60.117188 99.132812 66.679688 M 3.019531 92.425781 C 7.851562 110.460938 19.566406 126.660156 37.019531 136.738281 C 41.277344 139.191406 45.671875 141.175781 50.152344 142.691406 C 54.671875 144.21875 59.269531 145.28125 63.882812 145.898438 L 69.839844 99.839844 C 68.214844 99.613281 66.597656 99.230469 65.019531 98.695312 C 63.382812 98.140625 61.785156 97.425781 60.242188 96.535156 C 53.894531 92.875 49.636719 86.980469 47.875 80.417969 C 46.117188 73.855469 46.867188 66.625 50.527344 60.277344 C 51.421875 58.734375 52.449219 57.304688 53.582031 56.019531 C 54.6875 54.761719 55.894531 53.625 57.1875 52.617188 L 29.003906 15.707031 C 25.304688 18.546875 21.859375 21.761719 18.71875 25.339844 C 15.59375 28.894531 12.769531 32.804688 10.316406 37.0625 C 0.234375 54.511719 -1.816406 74.394531 3.019531 92.425781 Z M 3.019531 92.425781 " fill-opacity="1" fill-rule="evenodd"/></g></g></g></g><path fill="#004aad" d="M 137.644531 126.984375 C 139.929688 125.109375 142.339844 123.34375 144.878906 121.707031 L 145.414062 122.53125 C 142.914062 124.144531 140.527344 125.886719 138.269531 127.742188 Z M 123.664062 141.949219 C 125.386719 139.527344 127.261719 137.199219 129.28125 134.964844 L 130.003906 135.617188 C 128.011719 137.824219 126.164062 140.128906 124.457031 142.511719 Z M 114.058594 160.027344 C 115.101562 157.234375 116.308594 154.492188 117.664062 151.832031 L 118.539062 152.277344 C 117.199219 154.914062 116.003906 157.617188 114.976562 160.375 Z M 109.433594 179.972656 C 109.726562 176.992188 110.183594 174.035156 110.808594 171.125 L 111.761719 171.332031 C 111.144531 174.214844 110.691406 177.132812 110.40625 180.070312 Z M 110.121094 200.445312 C 109.628906 197.480469 109.308594 194.507812 109.15625 191.535156 L 110.136719 191.480469 C 110.289062 194.417969 110.601562 197.347656 111.09375 200.277344 Z M 116.109375 220.023438 C 114.859375 217.277344 113.769531 214.488281 112.859375 211.675781 L 113.789062 211.375 C 114.691406 214.152344 115.761719 216.910156 116.996094 219.613281 Z M 126.941406 237.398438 C 125.066406 235.113281 123.296875 232.703125 121.664062 230.167969 L 122.484375 229.632812 C 124.101562 232.140625 125.84375 234.515625 127.699219 236.773438 Z M 141.902344 251.382812 C 139.484375 249.65625 137.152344 247.78125 134.921875 245.765625 L 135.582031 245.042969 C 137.789062 247.03125 140.089844 248.882812 142.476562 250.585938 Z M 159.984375 260.988281 C 157.1875 259.941406 154.449219 258.738281 151.789062 257.378906 L 152.234375 256.503906 C 154.867188 257.84375 157.574219 259.042969 160.332031 260.066406 Z M 179.929688 265.613281 C 176.945312 265.316406 173.992188 264.863281 171.082031 264.238281 L 171.285156 263.28125 C 174.171875 263.898438 177.089844 264.355469 180.027344 264.640625 Z M 200.402344 264.925781 C 197.4375 265.414062 194.464844 265.738281 191.492188 265.890625 L 191.4375 264.90625 C 194.375 264.765625 197.304688 264.441406 200.230469 263.953125 Z M 219.980469 258.933594 C 217.230469 260.183594 214.445312 261.273438 211.632812 262.183594 L 211.328125 261.253906 C 214.105469 260.355469 216.863281 259.28125 219.570312 258.050781 Z M 237.355469 248.105469 C 235.070312 249.980469 232.660156 251.746094 230.121094 253.378906 L 229.585938 252.558594 C 232.097656 250.945312 234.472656 249.203125 236.730469 247.34375 Z M 251.335938 233.140625 C 249.613281 235.558594 247.738281 237.890625 245.71875 240.121094 L 244.996094 239.472656 C 246.988281 237.265625 248.835938 234.960938 250.542969 232.578125 Z M 260.941406 215.0625 C 259.898438 217.855469 258.691406 220.597656 257.335938 223.257812 L 256.460938 222.8125 C 257.800781 220.175781 258.996094 217.472656 260.023438 214.714844 Z M 265.566406 195.117188 C 265.273438 198.097656 264.816406 201.054688 264.191406 203.964844 L 263.238281 203.757812 C 263.855469 200.875 264.308594 197.953125 264.59375 195.015625 Z M 264.878906 174.644531 C 265.371094 177.609375 265.691406 180.582031 265.84375 183.554688 L 264.863281 183.605469 C 264.71875 180.671875 264.398438 177.734375 263.90625 174.8125 Z M 258.890625 155.0625 C 260.140625 157.8125 261.230469 160.597656 262.140625 163.410156 L 261.210938 163.714844 C 260.308594 160.9375 259.238281 158.179688 258.003906 155.476562 Z M 248.058594 137.691406 C 249.933594 139.976562 251.703125 142.386719 253.335938 144.929688 L 252.515625 145.464844 C 250.898438 142.957031 249.15625 140.582031 247.300781 138.324219 Z M 233.097656 123.707031 C 235.515625 125.429688 237.847656 127.304688 240.078125 129.324219 L 239.417969 130.046875 C 237.210938 128.054688 234.910156 126.207031 232.523438 124.503906 Z M 215.007812 114.101562 C 217.800781 115.144531 220.542969 116.351562 223.203125 117.707031 L 222.757812 118.582031 C 220.125 117.246094 217.417969 116.046875 214.660156 115.019531 Z M 195.0625 109.476562 C 198.042969 109.773438 201 110.226562 203.910156 110.851562 L 203.703125 111.808594 C 200.820312 111.191406 197.902344 110.734375 194.964844 110.449219 Z M 174.597656 110.164062 C 177.5625 109.671875 180.535156 109.351562 183.507812 109.199219 L 183.5625 110.183594 C 180.625 110.324219 177.6875 110.644531 174.769531 111.136719 Z M 155.019531 116.15625 C 157.769531 114.90625 160.554688 113.816406 163.367188 112.90625 L 163.671875 113.832031 C 160.894531 114.734375 158.136719 115.808594 155.429688 117.039062 Z M 155.019531 116.15625 " fill-opacity="1" fill-rule="nonzero"/><g clip-path="url(#e186911885)"><path fill="#004aad" d="M 174.8125 191.679688 L 172.144531 188.996094 L 172.144531 208.320312 L 187.496094 223.328125 L 202.847656 208.320312 L 202.847656 188.996094 L 200.179688 191.679688 L 200.179688 206.296875 L 187.496094 218.632812 L 174.8125 206.296875 Z M 174.8125 191.679688 " fill-opacity="1" fill-rule="nonzero"/></g><g clip-path="url(#f8ade5d33e)"><path fill="#004aad" d="M 181.570312 184.097656 L 163.9375 166.46875 L 163.9375 173.972656 L 177.738281 187.777344 L 177.738281 198.039062 L 182.917969 203.203125 L 182.917969 210.570312 L 187.496094 215.148438 L 192.074219 210.570312 L 192.074219 203.203125 L 197.253906 198.039062 L 197.253906 187.777344 L 211.054688 173.972656 L 211.054688 166.46875 L 193.421875 184.097656 L 193.421875 194.757812 L 187.496094 200.6875 L 181.570312 194.757812 Z M 181.570312 184.097656 " fill-opacity="1" fill-rule="nonzero"/></g><path fill="#004aad" d="M 167.488281 182.902344 L 174.8125 190.242188 L 174.8125 186.644531 L 167.488281 179.316406 Z M 167.488281 182.902344 " fill-opacity="1" fill-rule="nonzero"/><path fill="#004aad" d="M 200.179688 190.242188 L 207.503906 182.902344 L 207.503906 179.316406 L 200.179688 186.644531 Z M 200.179688 190.242188 " fill-opacity="1" fill-rule="nonzero"/><path fill="#004aad" d="M 177.816406 203.726562 L 181.59375 207.542969 L 181.59375 203.777344 L 177.816406 199.972656 Z M 177.816406 203.726562 " fill-opacity="1" fill-rule="nonzero"/><path fill="#004aad" d="M 193.398438 207.542969 L 197.175781 203.726562 L 197.175781 199.972656 L 193.398438 203.777344 Z M 193.398438 207.542969 " fill-opacity="1" fill-rule="nonzero"/><path fill="#004aad" d="M 165.4375 173.871094 L 180.207031 188.640625 L 180.207031 184.339844 L 165.4375 169.941406 Z M 165.4375 173.871094 " fill-opacity="1" fill-rule="nonzero"/><path fill="#004aad" d="M 194.785156 188.640625 L 209.550781 173.871094 L 209.550781 169.941406 L 194.785156 184.339844 Z M 194.785156 188.640625 " fill-opacity="1" fill-rule="nonzero"/><path fill="#004aad" d="M 188.984375 211.410156 L 191.132812 209.257812 L 191.132812 201.5625 L 195.992188 196.894531 L 195.890625 193.726562 L 188.984375 200.621094 Z M 188.984375 211.410156 " fill-opacity="1" fill-rule="nonzero"/><path fill="#004aad" d="M 179 196.894531 L 183.859375 201.5625 L 183.859375 209.257812 L 186.007812 211.410156 L 186.007812 200.621094 L 179.101562 193.726562 Z M 179 196.894531 " fill-opacity="1" fill-rule="nonzero"/><path fill="#004aad" d="M 173.1875 208.128906 L 187.433594 221.878906 L 187.496094 221.164062 L 187.558594 221.878906 L 201.804688 208.128906 L 200.660156 207.109375 L 187.496094 219.984375 L 174.332031 207.109375 Z M 173.1875 208.128906 " fill-opacity="1" fill-rule="nonzero"/><path fill="#004aad" d="M 172.855469 207.085938 L 174.101562 206.003906 L 174.101562 192.164062 L 172.867188 190.816406 Z M 172.855469 207.085938 " fill-opacity="1" fill-rule="nonzero"/><path fill="#004aad" d="M 200.890625 206.003906 L 202.136719 207.085938 L 202.125 190.816406 L 200.890625 192.164062 Z M 200.890625 206.003906 " fill-opacity="1" fill-rule="nonzero"/><g clip-path="url(#521ceb2665)"><path fill="#004aad" d="M 174.8125 232.738281 L 172.144531 230.054688 L 172.144531 249.375 L 187.496094 264.386719 L 202.847656 249.375 L 202.847656 230.054688 L 200.179688 232.738281 L 200.179688 247.351562 L 187.496094 259.691406 L 174.8125 247.351562 Z M 174.8125 232.738281 " fill-opacity="1" fill-rule="nonzero"/></g><g clip-path="url(#b5922bc160)"><path fill="#004aad" d="M 181.570312 225.15625 L 163.9375 207.527344 L 163.9375 215.03125 L 177.738281 228.832031 L 177.738281 239.097656 L 182.917969 244.261719 L 182.917969 251.628906 L 187.496094 256.207031 L 192.074219 251.628906 L 192.074219 244.261719 L 197.253906 239.097656 L 197.253906 228.832031 L 211.054688 215.03125 L 211.054688 207.527344 L 193.421875 225.15625 L 193.421875 235.816406 L 187.496094 241.742188 L 181.570312 235.816406 Z M 181.570312 225.15625 " fill-opacity="1" fill-rule="nonzero"/></g><path fill="#004aad" d="M 167.488281 223.960938 L 174.8125 231.300781 L 174.8125 227.699219 L 167.488281 220.375 Z M 167.488281 223.960938 " fill-opacity="1" fill-rule="nonzero"/><path fill="#004aad" d="M 200.179688 231.300781 L 207.503906 223.960938 L 207.503906 220.375 L 200.179688 227.699219 Z M 200.179688 231.300781 " fill-opacity="1" fill-rule="nonzero"/><path fill="#004aad" d="M 177.816406 244.785156 L 181.59375 248.601562 L 181.59375 244.835938 L 177.816406 241.03125 Z M 177.816406 244.785156 " fill-opacity="1" fill-rule="nonzero"/><path fill="#004aad" d="M 193.398438 248.601562 L 197.175781 244.785156 L 197.175781 241.03125 L 193.398438 244.835938 Z M 193.398438 248.601562 " fill-opacity="1" fill-rule="nonzero"/><path fill="#004aad" d="M 165.4375 214.929688 L 180.207031 229.699219 L 180.207031 225.398438 L 165.4375 211 Z M 165.4375 214.929688 " fill-opacity="1" fill-rule="nonzero"/><path fill="#004aad" d="M 194.785156 229.699219 L 209.550781 214.929688 L 209.550781 211 L 194.785156 225.398438 Z M 194.785156 229.699219 " fill-opacity="1" fill-rule="nonzero"/><path fill="#004aad" d="M 188.984375 252.464844 L 191.132812 250.316406 L 191.132812 242.621094 L 195.992188 237.953125 L 195.890625 234.785156 L 188.984375 241.679688 Z M 188.984375 252.464844 " fill-opacity="1" fill-rule="nonzero"/><path fill="#004aad" d="M 179 237.953125 L 183.859375 242.621094 L 183.859375 250.316406 L 186.007812 252.464844 L 186.007812 241.679688 L 179.101562 234.785156 Z M 179 237.953125 " fill-opacity="1" fill-rule="nonzero"/><path fill="#004aad" d="M 173.1875 249.183594 L 187.433594 262.933594 L 187.496094 262.222656 L 187.558594 262.933594 L 201.804688 249.183594 L 200.660156 248.167969 L 187.496094 261.039062 L 174.332031 248.167969 Z M 173.1875 249.183594 " fill-opacity="1" fill-rule="nonzero"/><path fill="#004aad" d="M 172.855469 248.140625 L 174.101562 247.0625 L 174.101562 233.222656 L 172.867188 231.871094 Z M 172.855469 248.140625 " fill-opacity="1" fill-rule="nonzero"/><path fill="#004aad" d="M 200.890625 247.0625 L 202.136719 248.140625 L 202.125 231.871094 L 200.890625 233.222656 Z M 200.890625 247.0625 " fill-opacity="1" fill-rule="nonzero"/><g clip-path="url(#fa8fd521ce)"><path fill="#004aad" d="M 174.8125 272.273438 L 172.144531 269.589844 L 172.144531 288.910156 L 187.496094 303.917969 L 202.847656 288.910156 L 202.847656 269.589844 L 200.179688 272.273438 L 200.179688 286.886719 L 187.496094 299.226562 L 174.8125 286.886719 Z M 174.8125 272.273438 " fill-opacity="1" fill-rule="nonzero"/></g><g clip-path="url(#07af2ffa7a)"><path fill="#004aad" d="M 181.570312 264.691406 L 163.9375 247.0625 L 163.9375 254.566406 L 177.738281 268.367188 L 177.738281 278.632812 L 182.917969 283.796875 L 182.917969 291.160156 L 187.496094 295.742188 L 192.074219 291.160156 L 192.074219 283.796875 L 197.253906 278.632812 L 197.253906 268.367188 L 211.054688 254.566406 L 211.054688 247.0625 L 193.421875 264.691406 L 193.421875 275.351562 L 187.496094 281.277344 L 181.570312 275.351562 Z M 181.570312 264.691406 " fill-opacity="1" fill-rule="nonzero"/></g><path fill="#004aad" d="M 167.488281 263.496094 L 174.8125 270.835938 L 174.8125 267.234375 L 167.488281 259.90625 Z M 167.488281 263.496094 " fill-opacity="1" fill-rule="nonzero"/><path fill="#004aad" d="M 200.179688 270.835938 L 207.503906 263.496094 L 207.503906 259.90625 L 200.179688 267.234375 Z M 200.179688 270.835938 " fill-opacity="1" fill-rule="nonzero"/><path fill="#004aad" d="M 177.816406 284.316406 L 181.59375 288.132812 L 181.59375 284.367188 L 177.816406 280.566406 Z M 177.816406 284.316406 " fill-opacity="1" fill-rule="nonzero"/><path fill="#004aad" d="M 193.398438 288.132812 L 197.175781 284.316406 L 197.175781 280.566406 L 193.398438 284.367188 Z M 193.398438 288.132812 " fill-opacity="1" fill-rule="nonzero"/><path fill="#004aad" d="M 165.4375 254.464844 L 180.207031 269.230469 L 180.207031 264.933594 L 165.4375 250.535156 Z M 165.4375 254.464844 " fill-opacity="1" fill-rule="nonzero"/><path fill="#004aad" d="M 194.785156 269.230469 L 209.550781 254.464844 L 209.550781 250.535156 L 194.785156 264.933594 Z M 194.785156 269.230469 " fill-opacity="1" fill-rule="nonzero"/><path fill="#004aad" d="M 188.984375 292 L 191.132812 289.851562 L 191.132812 282.15625 L 195.992188 277.488281 L 195.890625 274.320312 L 188.984375 281.214844 Z M 188.984375 292 " fill-opacity="1" fill-rule="nonzero"/><path fill="#004aad" d="M 179 277.488281 L 183.859375 282.15625 L 183.859375 289.851562 L 186.007812 292 L 186.007812 281.214844 L 179.101562 274.320312 Z M 179 277.488281 " fill-opacity="1" fill-rule="nonzero"/><path fill="#004aad" d="M 173.1875 288.71875 L 187.433594 302.46875 L 187.496094 301.757812 L 187.558594 302.46875 L 201.804688 288.71875 L 200.660156 287.703125 L 187.496094 300.574219 L 174.332031 287.703125 Z M 173.1875 288.71875 " fill-opacity="1" fill-rule="nonzero"/><path fill="#004aad" d="M 172.855469 287.675781 L 174.101562 286.59375 L 174.101562 272.753906 L 172.867188 271.40625 Z M 172.855469 287.675781 " fill-opacity="1" fill-rule="nonzero"/><path fill="#004aad" d="M 200.890625 286.59375 L 202.136719 287.675781 L 202.125 271.40625 L 200.890625 272.753906 Z M 200.890625 286.59375 " fill-opacity="1" fill-rule="nonzero"/><g clip-path="url(#16dc5f1cc8)"><path fill="#004aad" d="M 170.734375 170.449219 L 187.496094 182.058594 L 204.257812 170.449219 L 204.257812 162.574219 L 187.496094 174.191406 L 170.734375 162.574219 Z M 170.734375 170.449219 " fill-opacity="1" fill-rule="nonzero"/></g><g clip-path="url(#8f51e6879c)"><path fill="#004aad" d="M 162.140625 161.53125 L 162.140625 146.023438 L 180.679688 158.363281 L 180.679688 163.742188 L 187.496094 168.351562 L 194.328125 163.742188 L 194.328125 158.363281 L 194.472656 158.265625 L 212.855469 146.023438 L 212.855469 161.519531 L 187.574219 178.847656 L 187.496094 178.691406 L 187.421875 178.847656 Z M 162.78125 147.222656 L 162.78125 161.1875 L 187.175781 177.902344 L 187.496094 177.246094 L 187.820312 177.902344 L 212.210938 161.1875 L 212.210938 147.222656 L 194.960938 158.707031 L 194.960938 164.085938 L 187.496094 169.128906 L 180.035156 164.085938 L 180.035156 158.707031 Z M 162.78125 147.222656 " fill-opacity="1" fill-rule="nonzero"/></g><g clip-path="url(#cd2f0803e8)"><path fill="#004aad" d="M 169.902344 148.355469 L 187.496094 139.648438 L 187.640625 139.714844 L 205.105469 148.355469 L 192.117188 156.730469 L 192.117188 161.796875 L 187.496094 165.375 L 182.878906 161.796875 L 182.878906 156.730469 Z M 187.496094 140.359375 L 171.191406 148.421875 L 183.519531 156.375 L 183.519531 161.476562 L 187.496094 164.5625 L 191.472656 161.476562 L 191.472656 156.375 L 203.804688 148.421875 Z M 187.496094 140.359375 " fill-opacity="1" fill-rule="nonzero"/></g><path fill="#004aad" d="M 210.070312 159.71875 L 210.113281 151.535156 L 197.371094 159.652344 L 197.371094 164.628906 L 205.78125 158.363281 L 205.78125 162.90625 Z M 210.070312 159.71875 " fill-opacity="1" fill-rule="nonzero"/><path fill="#004aad" d="M 164.925781 159.71875 L 169.214844 162.90625 L 169.214844 158.363281 L 177.613281 164.628906 L 177.613281 159.652344 L 164.882812 151.535156 Z M 164.925781 159.71875 " fill-opacity="1" fill-rule="nonzero"/><path fill="#004aad" d="M 196.328125 151.144531 L 200.070312 148.679688 L 188.574219 142.679688 L 188.574219 161.730469 L 190.339844 159.886719 L 190.339844 154.386719 L 193.617188 152.1875 L 193.617188 147.058594 L 196.328125 148.625 Z M 196.328125 151.144531 " fill-opacity="1" fill-rule="nonzero"/><path fill="#004aad" d="M 174.925781 148.679688 L 178.667969 151.144531 L 178.667969 148.625 L 181.378906 147.058594 L 181.378906 152.1875 L 184.65625 154.386719 L 184.65625 159.886719 L 186.421875 161.730469 L 186.421875 142.679688 Z M 174.925781 148.679688 " fill-opacity="1" fill-rule="nonzero"/><g clip-path="url(#8be09218d9)"><g clip-path="url(#d2825f31de)"><g clip-path="url(#6e91beffb5)"><path fill="#004aad" d="M 206.167969 144.757812 L 219.066406 107.882812 L 257.480469 100.773438 L 244.578125 137.644531 Z M 206.167969 144.757812 " fill-opacity="1" fill-rule="nonzero"/></g></g></g><g clip-path="url(#4deec9e356)"><g clip-path="url(#98dc643f49)"><g clip-path="url(#0644541f9a)"><path fill="#004aad" d="M 224.003906 104.808594 L 236.4375 67.773438 L 274.753906 60.175781 L 262.324219 97.210938 Z M 224.003906 104.808594 " fill-opacity="1" fill-rule="nonzero"/></g></g></g><g clip-path="url(#d22a482e86)"><g clip-path="url(#ff811ece66)"><g clip-path="url(#821ba7105f)"><path fill="#004aad" d="M 267.597656 95.09375 L 280.027344 58.0625 L 318.347656 50.464844 L 305.914062 87.496094 Z M 267.597656 95.09375 " fill-opacity="1" fill-rule="nonzero"/></g></g></g><g clip-path="url(#5eb8ac292c)"><g clip-path="url(#297761fc69)"><g clip-path="url(#9d69f48e43)"><path fill="#004aad" d="M 118.910156 100.824219 L 157.027344 109.375 L 168.53125 146.707031 L 130.414062 138.15625 Z M 118.910156 100.824219 " fill-opacity="1" fill-rule="nonzero"/></g></g></g><g clip-path="url(#516ceaa26b)"><g clip-path="url(#972338fc4e)"><g clip-path="url(#22c3243ff1)"><path fill="#004aad" d="M 100.78125 59.691406 L 138.84375 68.488281 L 150.105469 105.894531 L 112.046875 97.097656 Z M 100.78125 59.691406 " fill-opacity="1" fill-rule="nonzero"/></g></g></g><g clip-path="url(#f03fa493bf)"><g clip-path="url(#087e091b10)"><g clip-path="url(#af74673976)"><path fill="#004aad" d="M 58.304688 49.304688 L 96.367188 58.105469 L 107.628906 95.507812 L 69.566406 86.710938 Z M 58.304688 49.304688 " fill-opacity="1" fill-rule="nonzero"/></g></g></g></svg>